<mxfile host="65bd71144e">
    <diagram id="gm_6m0ny45tDofKOPVJv" name="Página-1">
        <mxGraphModel dx="807" dy="513" grid="1" gridSize="10" guides="1" tooltips="1" connect="1" arrows="1" fold="1" page="1" pageScale="1" pageWidth="827" pageHeight="1169" math="0" shadow="0">
            <root>
                <mxCell id="0"/>
                <mxCell id="1" parent="0"/>
                <mxCell id="27" value="" style="edgeStyle=none;html=1;" edge="1" parent="1" source="3" target="26">
                    <mxGeometry relative="1" as="geometry"/>
                </mxCell>
                <mxCell id="3" value="&lt;font style=&quot;font-size: 15px&quot;&gt;INICIO&lt;/font&gt;" style="ellipse;whiteSpace=wrap;html=1;fillColor=#0050ef;fontColor=#ffffff;strokeColor=#001DBC;" vertex="1" parent="1">
                    <mxGeometry x="234.51" width="90" height="50" as="geometry"/>
                </mxCell>
                <mxCell id="29" value="" style="edgeStyle=none;html=1;" edge="1" parent="1" source="5" target="10">
                    <mxGeometry relative="1" as="geometry"/>
                </mxCell>
                <mxCell id="5" value="&lt;font style=&quot;font-size: 14px&quot;&gt;par = 0 &lt;br&gt;ó&lt;br&gt;impar = 0&lt;/font&gt;" style="whiteSpace=wrap;html=1;fillColor=#60a917;fontColor=#ffffff;strokeColor=#2D7600;" vertex="1" parent="1">
                    <mxGeometry x="238.01" y="160" width="81.99" height="60" as="geometry"/>
                </mxCell>
                <mxCell id="8" value="si" style="edgeStyle=none;html=1;fontColor=#F0F0F0;endSize=7;fontSize=16;" edge="1" parent="1" source="10" target="15">
                    <mxGeometry x="-0.2135" y="10" relative="1" as="geometry">
                        <mxPoint as="offset"/>
                    </mxGeometry>
                </mxCell>
                <mxCell id="9" value="no" style="edgeStyle=none;html=1;exitX=1;exitY=0.5;exitDx=0;exitDy=0;entryX=0;entryY=0.5;entryDx=0;entryDy=0;fontColor=#F0F0F0;strokeWidth=1;targetPerimeterSpacing=6;strokeColor=default;fontSize=15;" edge="1" parent="1" source="10" target="12">
                    <mxGeometry x="-0.132" y="10" relative="1" as="geometry">
                        <mxPoint as="offset"/>
                    </mxGeometry>
                </mxCell>
                <mxCell id="10" value="&lt;font style=&quot;font-size: 18px&quot;&gt;n&amp;nbsp;&lt;span style=&quot;font-family: &amp;#34;arial&amp;#34; , sans-serif ; text-align: left&quot;&gt;≠ 0&lt;/span&gt;&lt;/font&gt;" style="rhombus;whiteSpace=wrap;html=1;fillColor=#008a00;fontColor=#ffffff;strokeColor=#005700;" vertex="1" parent="1">
                    <mxGeometry x="226.26" y="290" width="110" height="60" as="geometry"/>
                </mxCell>
                <mxCell id="11" value="" style="edgeStyle=none;html=1;fontColor=#F0F0F0;endSize=7;" edge="1" parent="1" source="12" target="13">
                    <mxGeometry relative="1" as="geometry"/>
                </mxCell>
                <mxCell id="12" value="&lt;font style=&quot;font-size: 14px&quot;&gt;impar&lt;br&gt;par&lt;/font&gt;" style="shape=document;whiteSpace=wrap;html=1;boundedLbl=1;fillColor=#60a917;fontColor=#ffffff;strokeColor=#2D7600;" vertex="1" parent="1">
                    <mxGeometry x="414" y="293.75" width="89.5" height="52.5" as="geometry"/>
                </mxCell>
                <mxCell id="13" value="&lt;font style=&quot;font-size: 18px&quot;&gt;FIN&lt;/font&gt;" style="ellipse;whiteSpace=wrap;html=1;fillColor=#a20025;strokeColor=#6F0000;fontColor=#ffffff;" vertex="1" parent="1">
                    <mxGeometry x="414" y="390" width="93.75" height="49.75" as="geometry"/>
                </mxCell>
                <mxCell id="30" value="" style="edgeStyle=none;html=1;fontSize=14;entryX=0.5;entryY=0;entryDx=0;entryDy=0;" edge="1" parent="1" source="15" target="20">
                    <mxGeometry relative="1" as="geometry"/>
                </mxCell>
                <mxCell id="15" value="&lt;font style=&quot;font-size: 16px&quot;&gt;d = [ n % 2 ]&lt;br&gt;r = n - ( d * 2 )&lt;/font&gt;" style="whiteSpace=wrap;html=1;fillColor=#60a917;strokeColor=#2D7600;fontColor=#ffffff;" vertex="1" parent="1">
                    <mxGeometry x="206.19" y="470" width="145.62" height="60" as="geometry"/>
                </mxCell>
                <mxCell id="32" value="" style="edgeStyle=none;html=1;fontSize=14;exitX=0;exitY=0.5;exitDx=0;exitDy=0;entryX=0.5;entryY=0;entryDx=0;entryDy=0;" edge="1" parent="1" source="20" target="31">
                    <mxGeometry relative="1" as="geometry">
                        <Array as="points">
                            <mxPoint x="214" y="670"/>
                        </Array>
                    </mxGeometry>
                </mxCell>
                <mxCell id="34" value="" style="edgeStyle=none;html=1;fontSize=14;exitX=1;exitY=0.5;exitDx=0;exitDy=0;" edge="1" parent="1" source="20" target="33">
                    <mxGeometry relative="1" as="geometry">
                        <Array as="points">
                            <mxPoint x="414" y="670"/>
                        </Array>
                    </mxGeometry>
                </mxCell>
                <mxCell id="20" value="&lt;font style=&quot;font-size: 18px&quot;&gt;r = 0&lt;/font&gt;" style="rhombus;whiteSpace=wrap;html=1;fillColor=#008a00;fontColor=#ffffff;strokeColor=#005700;" vertex="1" parent="1">
                    <mxGeometry x="264" y="640" width="121" height="60" as="geometry"/>
                </mxCell>
                <mxCell id="21" value="" style="edgeStyle=none;html=1;fontColor=#F0F0F0;endSize=7;exitX=0.5;exitY=1;exitDx=0;exitDy=0;" edge="1" parent="1" source="22">
                    <mxGeometry relative="1" as="geometry">
                        <mxPoint x="170" y="902" as="sourcePoint"/>
                        <mxPoint x="279" y="250" as="targetPoint"/>
                        <Array as="points">
                            <mxPoint x="279" y="1062"/>
                            <mxPoint x="140" y="1062"/>
                            <mxPoint x="140" y="762"/>
                            <mxPoint x="140" y="612"/>
                            <mxPoint x="140" y="250"/>
                        </Array>
                    </mxGeometry>
                </mxCell>
                <mxCell id="22" value="&lt;font style=&quot;font-size: 19px&quot;&gt;cod, nota1,&lt;br&gt;nota2, nota3&lt;/font&gt;" style="shape=parallelogram;perimeter=parallelogramPerimeter;whiteSpace=wrap;html=1;fixedSize=1;fillColor=#008a00;fontColor=#ffffff;strokeColor=#005700;" vertex="1" parent="1">
                    <mxGeometry x="208.38" y="910" width="141.25" height="62" as="geometry"/>
                </mxCell>
                <mxCell id="23" value="" style="edgeStyle=none;html=1;fontColor=#F0F0F0;endSize=7;entryX=0.5;entryY=0;entryDx=0;entryDy=0;" edge="1" parent="1" target="22">
                    <mxGeometry relative="1" as="geometry">
                        <mxPoint x="340" y="850" as="sourcePoint"/>
                        <mxPoint x="274.2239430284858" y="918.0674662668665" as="targetPoint"/>
                        <Array as="points">
                            <mxPoint x="310" y="880"/>
                        </Array>
                    </mxGeometry>
                </mxCell>
                <mxCell id="28" value="" style="edgeStyle=none;html=1;" edge="1" parent="1" source="26" target="5">
                    <mxGeometry relative="1" as="geometry"/>
                </mxCell>
                <mxCell id="26" value="&lt;font style=&quot;font-size: 18px&quot;&gt;n&lt;/font&gt;" style="shape=parallelogram;perimeter=parallelogramPerimeter;whiteSpace=wrap;html=1;fixedSize=1;fillColor=#008a00;fontColor=#ffffff;strokeColor=#005700;" vertex="1" parent="1">
                    <mxGeometry x="231" y="80" width="96" height="30" as="geometry"/>
                </mxCell>
                <mxCell id="31" value="&lt;font style=&quot;font-size: 16px&quot;&gt;par = par + 1&lt;/font&gt;" style="whiteSpace=wrap;html=1;fillColor=#60a917;fontColor=#ffffff;strokeColor=#2D7600;" vertex="1" parent="1">
                    <mxGeometry x="155" y="750" width="120" height="40" as="geometry"/>
                </mxCell>
                <mxCell id="37" value="" style="edgeStyle=none;html=1;fontSize=14;" edge="1" parent="1" source="33">
                    <mxGeometry relative="1" as="geometry">
                        <mxPoint x="340" y="850" as="targetPoint"/>
                        <Array as="points">
                            <mxPoint x="416" y="850"/>
                        </Array>
                    </mxGeometry>
                </mxCell>
                <mxCell id="33" value="&lt;font style=&quot;font-size: 17px&quot;&gt;par = par + 1&lt;/font&gt;" style="whiteSpace=wrap;html=1;fillColor=#60a917;fontColor=#ffffff;strokeColor=#2D7600;" vertex="1" parent="1">
                    <mxGeometry x="355.76" y="750" width="120" height="40" as="geometry"/>
                </mxCell>
                <mxCell id="35" value="" style="edgeStyle=none;html=1;fontColor=#F0F0F0;endSize=7;exitX=0.5;exitY=1;exitDx=0;exitDy=0;" edge="1" parent="1" source="31">
                    <mxGeometry relative="1" as="geometry">
                        <mxPoint x="356" y="860" as="sourcePoint"/>
                        <mxPoint x="340" y="850" as="targetPoint"/>
                        <Array as="points">
                            <mxPoint x="215" y="850"/>
                        </Array>
                    </mxGeometry>
                </mxCell>
            </root>
        </mxGraphModel>
    </diagram>
</mxfile>